<?xml version="1.0"?><svg width="640" height="480" xmlns="http://www.w3.org/2000/svg">
 <title>speech bubbles 6</title>
 <g>
  <title>Layer 1</title>
  <path fill="none" fill-opacity="0.75" fill-rule="evenodd" stroke-width="7.5" stroke="#1a1a1a" id="path575" d="m906.289917,247.992416c8.136841,0 14.687256,2.707565 14.687256,6.070816l0,36.361694c0,3.36322 -6.550415,6.070801 -14.687256,6.070801l-46.571655,0l6.286438,15.730835l-36.000061,-15.730835l-110.001587,0c-8.13678,0 -14.687256,-2.707581 -14.687256,-6.070801l0,-36.361694c0,-3.363251 6.550476,-6.070816 14.687256,-6.070816l186.286865,0z"/>
  <path fill="none" fill-opacity="0.75" fill-rule="evenodd" stroke="#1a1a1a" stroke-width="8.5" id="path576" d="m953.796509,382.174713c0,-4.373199 -5.161865,-7.893829 -11.573486,-7.893829l-181.780945,0c-6.411743,0 -11.573486,3.52063 -11.573486,7.893829l0,11.96225l-29.989441,-3.378723l29.989441,19.348663l0,23.894135c0,4.373169 5.161743,7.89386 11.573486,7.89386l181.780945,0c6.411621,0 11.573486,-3.520691 11.573486,-7.89386l0,-51.826324z"/>
  <path fill="none" fill-opacity="0.75" fill-rule="evenodd" stroke="#1a1a1a" stroke-width="8.5" id="path587" d="m-262.171326,108.856255c-6.701294,0.000015 -12.096222,6.04213 -12.096222,13.547348l0,25.803459c-8.980438,4.13678 -45.632446,-10.299973 -56.176849,-11.444229c26.4198,8.5672 35.960419,26.251129 56.176849,31.892258l0,42.684723c0,7.505188 4.605103,14.241287 11.306366,14.241287l190.793976,-0.69397c6.701294,0 12.096172,-6.04216 12.096172,-13.547318l0,-88.936203c0,-7.505203 -5.394878,-13.547348 -12.096172,-13.547348l-190.00412,-0.000008z" transform="rotate(-179.862, -195.258, 167.219)"/>
  <path fill="none" fill-opacity="0.75" fill-rule="evenodd" stroke="#1a1a1a" stroke-width="8.5" id="path588" d="m535.263855,324.216492c-0.00415,15.02063 -12.338501,27.109833 -27.655304,27.105865l-58.630585,-0.015167c-2.832245,38.069122 4.952576,58.942688 33.61499,86.897522c-43.64978,-9.759735 -65.836243,-41.5914 -69.375702,-86.906769l-337.857758,-0.087494c-15.316895,-0.003937 -27.64444,-12.099518 -27.640198,-27.120148l0.055267,-195.60347c0.00415,-15.02063 12.338501,-27.109818 27.655304,-27.105865l432.248993,0.111893c15.316864,0.003967 27.64444,12.099533 27.640167,27.120163l-0.055176,195.60347z"/>
  <path fill="none" fill-opacity="0.75" fill-rule="evenodd" stroke="#1a1a1a" stroke-width="8.5" id="path595" d="m903.649902,40.312927c-69.471069,-37 -119.978638,25.421753 -123.978699,62.536713c0,25.034302 15.198914,47.495239 39.232971,62.810852c-14.060974,17.158844 -34.257935,29.345764 -57.361328,33.391663c-33.558228,2.390137 8.968872,0.604492 13.576294,0.604492c28.786987,0 54.721008,-7.873688 72.913696,-20.447571c14.254761,4.604645 30.019531,7.186859 46.617065,7.186859c63.471069,0 114.986694,-37.431427 114.986694,-83.546295c0,-46.114929 -44.515625,-96.536713 -105.986694,-62.536713z"/>
 </g>
</svg>