<?xml version="1.0" encoding="UTF-8" standalone="no"?>
<!DOCTYPE svg PUBLIC "-//W3C//DTD SVG 1.1//EN" "http://www.w3.org/Graphics/SVG/1.1/DTD/svg11.dtd">
<svg version="1.1" xmlns="http://www.w3.org/2000/svg" xmlns:xlink="http://www.w3.org/1999/xlink" preserveAspectRatio="xMidYMid meet" viewBox="0 0 1240 970" width="1240" height="970"><defs><path d="M381.39 6.3L383.47 6.31L385.56 6.32L387.65 6.34L389.74 6.37L391.82 6.41L393.9 6.45L395.95 6.5L397.99 6.56L400.01 6.63L401.99 6.7L403.95 6.78L405.87 6.87L407.75 6.97L409.58 7.07L411.36 7.18L413.1 7.29L414.77 7.42L416.38 7.55L417.92 7.68L419.4 7.83L420.8 7.98L422.12 8.13L426.34 8.72L430.53 9.34L434.68 10.01L438.8 10.72L442.89 11.48L446.95 12.28L450.97 13.12L454.96 14.01L458.91 14.94L462.83 15.91L466.71 16.93L470.56 17.99L474.37 19.09L478.15 20.24L481.89 21.43L485.59 22.66L489.26 23.93L492.89 25.25L496.49 26.6L500.05 28L503.57 29.45L507.05 30.93L510.5 32.46L513.91 34.03L517.28 35.64L520.61 37.29L523.9 38.98L527.16 40.72L530.37 42.5L533.55 44.32L536.69 46.18L539.78 48.08L542.84 50.02L545.85 52L548.83 54.03L551.76 56.09L554.66 58.2L557.51 60.35L560.32 62.53L563.09 64.76L564.55 65.98L566.03 67.23L567.51 68.52L569 69.84L570.49 71.18L571.99 72.56L573.49 73.97L574.99 75.4L576.49 76.86L577.99 78.34L579.49 79.84L580.99 81.36L582.48 82.9L583.97 84.46L585.45 86.04L586.92 87.63L588.38 89.23L589.83 90.85L591.26 92.48L592.69 94.11L594.1 95.75L595.49 97.4L596.86 99.05L598.22 100.71L599.56 102.37L600.88 104.03L602.17 105.68L603.44 107.34L604.69 108.99L605.9 110.63L607.1 112.27L608.26 113.9L609.39 115.52L610.5 117.13L611.57 118.72L612.6 120.3L613.61 121.87L614.57 123.42L615.5 124.95L616.39 126.45L619.99 132.85L624.78 125.12L625.44 124.06L626.12 122.97L626.83 121.88L627.55 120.76L628.29 119.64L629.05 118.51L629.82 117.36L630.61 116.21L631.42 115.05L632.24 113.88L633.07 112.71L633.92 111.53L634.78 110.35L635.65 109.16L636.53 107.98L637.43 106.79L638.33 105.6L639.23 104.42L640.15 103.23L641.07 102.05L642 100.88L642.93 99.71L643.86 98.55L644.8 97.4L645.74 96.25L646.69 95.12L647.63 93.99L648.57 92.88L649.51 91.79L650.45 90.7L651.39 89.63L652.32 88.58L653.25 87.55L654.17 86.53L655.09 85.54L656 84.56L656.9 83.61L657.8 82.67L658.68 81.77L659.56 80.89L661.99 78.47L664.47 76.09L667 73.75L669.58 71.43L672.2 69.15L674.86 66.91L677.57 64.69L680.32 62.52L683.12 60.37L685.96 58.27L688.84 56.2L691.75 54.16L694.71 52.17L697.71 50.21L700.74 48.28L703.81 46.4L706.92 44.55L710.06 42.74L713.24 40.98L716.45 39.25L719.7 37.56L722.97 35.91L726.28 34.3L729.62 32.74L732.99 31.21L736.39 29.73L739.81 28.29L743.26 26.89L746.74 25.53L750.25 24.22L753.78 22.96L757.33 21.73L760.91 20.56L764.51 19.42L768.13 18.34L771.77 17.29L775.44 16.3L779.12 15.35L782.82 14.45L786.54 13.6L788.52 13.17L790.43 12.75L792.29 12.36L794.09 11.98L795.85 11.62L797.56 11.28L799.22 10.95L800.85 10.64L802.45 10.34L804.02 10.06L805.56 9.8L807.07 9.54L808.58 9.31L810.06 9.08L811.54 8.87L813.01 8.67L814.48 8.49L815.95 8.31L817.43 8.15L818.92 8L820.42 7.86L821.94 7.73L823.48 7.61L825.05 7.51L826.65 7.41L828.28 7.32L829.95 7.23L831.66 7.16L833.41 7.1L835.22 7.04L837.08 6.99L839 6.95L840.98 6.91L843.02 6.88L845.14 6.85L847.32 6.83L849.59 6.82L851.94 6.81L854.37 6.8L856.89 6.8L858.95 6.81L860.93 6.82L862.84 6.84L864.68 6.85L866.45 6.87L868.16 6.89L869.8 6.91L871.38 6.93L872.9 6.95L874.37 6.98L875.78 7.01L877.14 7.04L878.46 7.08L879.73 7.12L880.96 7.16L882.15 7.21L883.3 7.26L884.41 7.31L885.5 7.37L886.56 7.44L887.58 7.5L888.59 7.57L889.57 7.65L890.54 7.73L891.48 7.82L892.42 7.91L893.34 8.01L894.26 8.11L895.17 8.22L896.07 8.34L896.98 8.46L897.88 8.59L898.8 8.72L899.71 8.87L900.64 9.01L901.58 9.17L902.54 9.33L903.51 9.5L904.51 9.68L905.53 9.87L912.81 11.31L920.01 12.91L927.14 14.65L934.2 16.55L941.18 18.59L948.08 20.77L954.9 23.1L961.64 25.58L968.29 28.19L974.86 30.95L981.34 33.85L987.73 36.89L994.04 40.06L1000.25 43.37L1006.36 46.82L1012.39 50.4L1018.31 54.11L1024.14 57.95L1029.86 61.93L1035.49 66.03L1041.01 70.26L1046.43 74.62L1051.74 79.1L1056.94 83.71L1062.03 88.44L1067.02 93.29L1071.88 98.26L1076.64 103.36L1081.28 108.57L1085.8 113.9L1090.2 119.34L1094.48 124.9L1098.64 130.57L1102.67 136.36L1106.58 142.25L1110.36 148.26L1114.01 154.37L1117.53 160.59L1120.92 166.92L1124.18 173.36L1125.78 176.68L1127.35 180L1128.86 183.31L1130.33 186.61L1131.75 189.91L1133.13 193.21L1134.47 196.51L1135.76 199.81L1137.01 203.11L1138.21 206.41L1139.37 209.72L1140.49 213.03L1141.57 216.34L1142.6 219.67L1143.59 223L1144.54 226.34L1145.44 229.69L1146.31 233.06L1147.13 236.44L1147.91 239.83L1148.65 243.24L1149.36 246.66L1150.02 250.11L1150.64 253.57L1151.22 257.05L1151.76 260.56L1152.26 264.08L1152.73 267.64L1153.15 271.22L1153.54 274.82L1153.89 278.45L1154.2 282.11L1154.47 285.8L1154.71 289.53L1154.91 293.28L1155.07 297.07L1155.2 300.9L1155.29 304.76L1155.34 308.66L1155.36 312.6L1155.35 315.25L1155.33 317.87L1155.3 320.47L1155.25 323.04L1155.19 325.59L1155.11 328.11L1155.02 330.61L1154.91 333.09L1154.79 335.55L1154.65 338L1154.5 340.43L1154.34 342.84L1154.15 345.24L1153.96 347.63L1153.74 350.01L1153.51 352.38L1153.27 354.75L1153 357.11L1152.72 359.46L1152.43 361.81L1152.11 364.16L1151.78 366.51L1151.43 368.87L1151.07 371.22L1150.69 373.58L1150.29 375.95L1149.87 378.32L1149.43 380.71L1148.97 383.1L1148.5 385.5L1148.01 387.92L1147.5 390.36L1146.96 392.8L1146.41 395.27L1145.84 397.76L1145.26 400.27L1144.65 402.79L1144.02 405.35L1143.37 407.93L1142.7 410.53L1141.21 416.09L1139.64 421.66L1137.99 427.23L1136.27 432.81L1134.46 438.39L1132.57 443.98L1130.6 449.58L1128.56 455.18L1126.44 460.79L1124.23 466.4L1121.95 472.02L1119.59 477.64L1117.15 483.26L1114.64 488.89L1112.04 494.52L1109.37 500.16L1106.62 505.79L1103.79 511.43L1100.88 517.08L1097.9 522.72L1094.83 528.37L1091.7 534.02L1088.48 539.67L1085.19 545.32L1081.82 550.97L1078.37 556.63L1074.85 562.28L1071.25 567.93L1067.57 573.59L1063.82 579.24L1059.99 584.9L1056.08 590.55L1052.1 596.2L1048.04 601.85L1043.91 607.5L1039.7 613.15L1035.42 618.79L1031.06 624.43L1026.62 630.07L1022.11 635.71L1017.47 641.41L1012.76 647.11L1007.97 652.8L1003.11 658.49L998.18 664.16L993.17 669.84L988.09 675.5L982.94 681.17L977.72 686.82L972.42 692.47L967.04 698.12L961.6 703.76L956.08 709.39L950.48 715.02L944.81 720.65L939.07 726.27L933.25 731.89L927.35 737.5L921.38 743.11L915.34 748.72L909.21 754.32L903.02 759.92L896.74 765.51L890.39 771.11L883.97 776.69L877.47 782.28L870.89 787.86L864.23 793.44L857.5 799.02L850.69 804.59L843.8 810.16L836.83 815.73L829.79 821.3L822.66 826.87L815.46 832.43L808.18 837.99L800.83 843.55L793.39 849.11L785.87 854.67L778.28 860.23L775.92 861.94L773.45 863.72L770.87 865.57L768.19 867.48L765.41 869.45L762.54 871.46L759.59 873.53L756.55 875.65L753.44 877.81L750.26 880.01L747.02 882.24L743.71 884.5L740.36 886.8L736.95 889.11L733.51 891.45L730.03 893.81L726.51 896.18L722.97 898.56L719.41 900.94L715.84 903.33L712.25 905.72L708.67 908.1L705.08 910.48L701.5 912.84L697.94 915.19L694.39 917.51L690.86 919.82L687.37 922.1L683.91 924.34L680.49 926.56L677.11 928.73L673.79 930.87L670.52 932.96L667.32 935L664.18 936.99L661.12 938.93L658.13 940.8L655.23 942.62L652.42 944.36L649.7 946.04L648.66 946.68L647.63 947.33L646.61 947.96L645.59 948.6L644.59 949.22L643.59 949.84L642.61 950.45L641.64 951.06L640.68 951.66L639.73 952.24L638.8 952.82L637.89 953.39L636.99 953.95L636.1 954.49L635.24 955.03L634.4 955.55L633.57 956.06L632.77 956.56L631.99 957.04L631.23 957.51L630.49 957.97L629.78 958.41L629.1 958.83L628.44 959.24L627.81 959.63L627.21 960L626.63 960.36L626.09 960.69L625.58 961.01L625.1 961.31L624.65 961.59L624.23 961.84L623.86 962.08L623.51 962.29L623.21 962.48L622.94 962.65L622.7 962.8L622.51 962.92L622.36 963.02L622.25 963.09L622.13 963.17L622.01 963.24L621.89 963.31L621.77 963.37L621.65 963.43L621.53 963.48L621.41 963.53L621.29 963.57L621.17 963.6L621.05 963.63L620.93 963.66L620.8 963.68L620.68 963.69L620.55 963.7L620.42 963.7L620.29 963.7L620.16 963.69L620.03 963.67L619.89 963.65L619.75 963.62L619.61 963.59L619.47 963.55L619.32 963.51L619.17 963.46L619.02 963.4L618.86 963.33L618.7 963.26L618.54 963.19L618.37 963.11L618.2 963.02L618.03 962.92L617.85 962.82L617.67 962.71L617.48 962.59L617.29 962.47L617.09 962.34L616.89 962.21L616.68 962.06L616.47 961.92L616.25 961.76L616.07 961.64L615.84 961.48L615.57 961.3L615.25 961.1L614.9 960.87L614.5 960.61L614.06 960.33L613.58 960.02L613.06 959.7L612.51 959.34L611.92 958.97L611.29 958.58L610.63 958.16L609.94 957.73L609.22 957.27L608.46 956.8L607.68 956.31L606.87 955.8L606.03 955.27L605.16 954.73L604.27 954.17L603.35 953.6L602.41 953.01L601.45 952.41L600.47 951.8L599.46 951.18L598.44 950.54L597.4 949.89L596.34 949.24L595.27 948.57L594.18 947.89L593.08 947.21L591.96 946.51L590.83 945.81L589.69 945.11L588.55 944.4L587.39 943.68L586.22 942.96L585.05 942.23L583.88 941.51L581.16 939.84L578.37 938.11L575.5 936.33L572.57 934.49L569.57 932.6L566.52 930.67L563.41 928.69L560.24 926.66L557.04 924.6L553.78 922.51L550.49 920.38L547.17 918.21L543.81 916.02L540.43 913.81L537.03 911.57L533.61 909.31L530.17 907.03L526.72 904.75L523.27 902.44L519.82 900.13L516.37 897.82L512.92 895.5L509.49 893.18L506.07 890.86L502.67 888.55L499.3 886.25L495.95 883.95L492.63 881.67L489.35 879.41L486.1 877.16L482.91 874.94L479.75 872.74L476.65 870.57L473.61 868.43L470.63 866.32L467.71 864.24L464.86 862.21L462.08 860.22L459.38 858.27L456.76 856.36L444.88 847.62L433.18 838.84L421.64 830.02L410.27 821.17L399.08 812.28L388.07 803.37L377.23 794.42L366.56 785.44L356.08 776.44L345.78 767.41L335.65 758.35L325.71 749.27L315.96 740.17L306.38 731.05L297 721.91L287.8 712.75L278.79 703.58L269.98 694.39L261.35 685.18L252.92 675.97L244.68 666.74L236.63 657.51L228.78 648.26L221.13 639.01L213.68 629.76L206.43 620.5L199.39 611.24L192.54 601.97L185.9 592.71L179.47 583.45L173.24 574.2L167.22 564.95L161.41 555.7L155.81 546.46L150.42 537.23L145.25 528.02L140.29 518.81L135.55 509.62L131.02 500.44L126.72 491.28L123.2 483.41L119.83 475.54L116.61 467.69L113.55 459.85L110.64 452.02L107.89 444.21L105.29 436.41L102.84 428.62L100.54 420.86L98.41 413.11L96.42 405.38L94.59 397.67L92.91 389.99L91.39 382.32L90.02 374.69L88.8 367.08L87.74 359.49L86.84 351.94L86.09 344.41L85.49 336.91L85.06 329.45L84.77 322.02L84.64 314.62L84.67 307.26L84.85 299.94L85.19 292.65L85.68 285.41L86.33 278.2L87.14 271.04L88.1 263.92L89.22 256.84L90.49 249.81L91.92 242.82L93.51 235.89L95.25 229L97.16 222.16L99.21 215.38L101.43 208.64L103.8 201.97L106.33 195.34L109.44 187.75L112.74 180.28L116.24 172.93L119.93 165.69L123.8 158.58L127.86 151.59L132.1 144.73L136.51 138.01L141.1 131.41L145.85 124.95L150.77 118.63L155.85 112.46L161.09 106.42L166.49 100.54L172.04 94.8L177.73 89.21L183.58 83.78L189.56 78.51L195.68 73.4L201.93 68.44L208.32 63.66L214.83 59.04L221.47 54.59L228.23 50.32L235.1 46.22L242.09 42.3L249.19 38.56L256.39 35L263.7 31.63L271.11 28.45L278.61 25.46L286.21 22.66L293.89 20.06L301.66 17.66L309.52 15.47L317.45 13.47L325.46 11.69L333.54 10.11L341.69 8.75L349.9 7.6L351.13 7.46L352.45 7.32L353.84 7.19L355.31 7.07L356.86 6.96L358.46 6.86L360.13 6.77L361.86 6.68L363.64 6.61L365.48 6.54L367.35 6.48L369.27 6.43L371.22 6.39L373.21 6.36L375.22 6.33L377.26 6.31L379.32 6.3L381.25 6.3L381.27 6.3L381.28 6.3L381.39 6.3ZM1068.52 534.1L1068.5 534.29L1068.86 533.68L1068.62 533.98L1068.52 534.1Z" id="beWBg6cet"></path></defs><g><g><g><use xlink:href="#beWBg6cet" opacity="1" fill="#1a1a1a" fill-opacity="1"></use><g><use xlink:href="#beWBg6cet" opacity="1" fill-opacity="0" stroke="#574040" stroke-width="0" stroke-opacity="0"></use></g></g></g></g></svg>