<?xml version="1.0" standalone="no"?>
<!DOCTYPE svg PUBLIC "-//W3C//DTD SVG 20010904//EN"
 "http://www.w3.org/TR/2001/REC-SVG-20010904/DTD/svg10.dtd">
<svg version="1.0" xmlns="http://www.w3.org/2000/svg"
 width="992.000000pt" height="743.000000pt" viewBox="0 0 992.000000 743.000000"
 preserveAspectRatio="xMidYMid meet">
<metadata>
Created by potrace 1.16, written by Peter Selinger 2001-2019
</metadata>
<g transform="translate(0.000000,743.000000) scale(0.100000,-0.100000)"
fill="#000000" stroke="none">
<path d="M2995 7249 c-825 -104 -1527 -644 -1828 -1409 -261 -660 -207 -1433
153 -2221 420 -916 1280 -1867 2477 -2740 258 -188 686 -475 954 -639 118 -73
227 -141 243 -152 22 -16 33 -18 45 -10 9 6 102 63 206 128 267 164 735 476
965 644 764 556 1369 1114 1830 1685 455 564 760 1134 905 1690 68 262 95 468
95 735 0 396 -71 712 -234 1045 -319 649 -909 1090 -1641 1227 -103 19 -155
22 -365 23 -257 0 -327 -7 -528 -51 -373 -83 -712 -262 -953 -505 -87 -87
-196 -226 -261 -332 l-36 -58 -27 48 c-87 150 -254 343 -400 463 -275 225
-634 369 -1058 425 -128 16 -423 19 -542 4z m555 -155 c458 -66 825 -242 1090
-520 132 -139 208 -249 309 -451 39 -79 73 -143 76 -143 3 0 32 57 65 127 271
570 754 901 1450 994 135 18 401 15 535 -5 457 -70 867 -273 1186 -588 505
-497 722 -1198 603 -1948 -172 -1088 -986 -2222 -2379 -3315 -389 -305 -1050
-758 -1431 -980 l-31 -18 -169 104 c-907 556 -1766 1229 -2330 1825 -792 836
-1233 1632 -1350 2439 -25 169 -25 518 -1 675 88 558 354 1027 775 1362 318
254 726 419 1128 457 123 12 335 5 474 -15z"/>
</g>
</svg>
