<?xml version="1.0" standalone="no"?>
<!DOCTYPE svg PUBLIC "-//W3C//DTD SVG 20010904//EN"
 "http://www.w3.org/TR/2001/REC-SVG-20010904/DTD/svg10.dtd">
<svg version="1.0" xmlns="http://www.w3.org/2000/svg"
 width="1900.000000pt" height="1900.000000pt" viewBox="0 0 1900.000000 1900.000000"
 preserveAspectRatio="xMidYMid meet">
<metadata>
Created by potrace 1.11, written by Peter Selinger 2001-2013
</metadata>
<g transform="translate(0.000000,1900.000000) scale(0.100000,-0.100000)"
fill="#000000" stroke="none">
<path d="M8019 16496 c-2 -2 -51 -6 -109 -10 -58 -3 -116 -8 -130 -10 -14 -2
-52 -7 -85 -10 -252 -27 -580 -101 -870 -198 -515 -171 -971 -421 -1400 -767
-166 -134 -181 -148 -350 -316 -165 -164 -183 -185 -353 -390 -88 -105 -275
-380 -367 -540 -55 -95 -215 -407 -215 -419 0 -3 -13 -35 -30 -71 -16 -36 -30
-68 -30 -71 0 -3 -7 -20 -15 -37 -33 -71 -143 -404 -160 -482 -1 -5 -7 -30
-14 -55 -7 -25 -15 -56 -18 -70 -2 -14 -8 -41 -13 -60 -12 -45 -47 -231 -55
-290 -3 -25 -8 -52 -10 -60 -2 -8 -7 -43 -10 -77 -3 -34 -8 -71 -10 -82 -27
-139 -27 -771 0 -965 2 -17 7 -53 10 -81 11 -87 14 -102 30 -202 19 -109 63
-307 94 -426 36 -133 136 -426 171 -502 10 -23 40 -97 42 -105 1 -3 11 -25 24
-50 12 -25 39 -80 59 -124 50 -105 157 -297 237 -425 l65 -104 -33 -51 c-18
-28 -37 -55 -41 -61 -5 -5 -39 -63 -76 -128 -136 -237 -272 -531 -347 -747
-17 -52 -35 -102 -38 -110 -3 -8 -6 -19 -8 -25 -1 -5 -9 -30 -17 -55 -18 -56
-75 -266 -81 -300 -2 -14 -9 -43 -14 -65 -6 -22 -14 -56 -17 -75 -3 -19 -12
-71 -20 -115 -17 -98 -23 -139 -30 -207 -3 -29 -7 -62 -9 -73 -27 -141 -28
-822 -1 -963 2 -15 11 -87 20 -162 8 -66 33 -202 70 -376 2 -10 13 -55 25 -99
11 -44 23 -90 26 -102 6 -30 106 -335 129 -393 87 -224 220 -495 348 -710 50
-83 214 -330 227 -340 3 -3 17 -21 30 -40 13 -19 27 -37 30 -40 3 -3 18 -23
35 -45 16 -22 31 -42 35 -45 3 -3 30 -34 60 -70 99 -117 123 -143 260 -280
289 -290 556 -497 911 -705 148 -86 127 -75 259 -141 462 -229 878 -358 1415
-435 283 -41 813 -47 1080 -14 17 2 53 7 80 10 28 3 75 10 105 15 30 5 72 12
94 15 75 11 242 47 371 81 72 19 139 36 149 39 37 9 351 118 361 125 6 4 21
11 35 15 14 4 48 18 75 30 28 12 75 33 105 46 150 65 424 215 579 317 47 31
91 59 96 61 6 2 12 7 15 10 3 3 46 35 95 71 50 36 97 70 105 77 89 71 214 175
250 208 58 52 305 298 351 350 35 40 191 227 212 255 30 39 83 111 128 175 53
74 209 320 209 330 0 3 11 23 25 45 38 60 153 291 206 414 l47 109 53 22 c353
144 772 392 1068 630 206 166 457 408 617 595 355 415 639 904 823 1416 35 99
99 304 105 337 1 7 9 37 18 67 9 30 21 80 27 110 6 30 14 66 17 80 13 62 43
228 48 270 2 19 8 62 11 95 4 33 9 69 11 79 25 132 25 821 0 952 -2 10 -7 46
-10 79 -35 305 -124 677 -238 990 -22 61 -46 124 -53 140 -8 17 -23 53 -35 80
-187 442 -463 875 -790 1240 -64 71 -273 280 -350 349 -65 59 -314 259 -380
306 -258 182 -567 357 -844 476 l-99 42 -42 99 c-219 517 -548 1000 -960 1408
-137 136 -162 160 -285 265 -132 113 -476 360 -501 360 -5 0 -9 5 -9 10 0 6
-5 10 -11 10 -6 0 -31 14 -56 30 -24 17 -46 30 -48 30 -2 0 -28 14 -57 31 -89
53 -335 174 -478 234 -342 144 -812 269 -1160 309 -25 3 -72 8 -105 12 -33 4
-73 8 -90 11 -40 5 -601 14 -606 9z m566 -809 c17 -3 57 -8 90 -11 409 -46
844 -175 1215 -361 170 -85 185 -93 269 -145 34 -22 67 -40 72 -40 5 0 9 -4 9
-10 0 -5 5 -10 10 -10 10 0 54 -28 87 -55 6 -5 44 -32 83 -60 332 -233 670
-585 920 -959 l52 -79 -78 8 c-44 4 -88 9 -99 11 -59 11 -248 19 -470 19 -289
0 -413 -9 -665 -46 -148 -21 -277 -47 -426 -85 -55 -13 -109 -27 -122 -29 -12
-3 -95 -30 -185 -59 -211 -70 -316 -112 -551 -220 -52 -25 -237 -123 -308
-165 -81 -48 -254 -155 -258 -161 -3 -3 -27 -21 -55 -40 -287 -194 -649 -526
-891 -820 -286 -347 -533 -755 -690 -1142 -20 -51 -20 -50 -134 -98 -98 -42
-359 -172 -431 -216 -31 -19 -59 -34 -62 -34 -3 0 -34 -19 -69 -42 -35 -22
-101 -66 -148 -97 -194 -126 -414 -303 -618 -496 -46 -44 -87 -81 -91 -82 -3
-2 -11 7 -17 20 -6 12 -41 81 -77 152 -86 171 -147 316 -201 478 -43 129 -91
295 -100 349 -3 15 -7 31 -9 35 -3 5 -8 24 -11 43 -3 19 -12 73 -20 120 -17
96 -31 208 -43 325 -15 152 -8 640 11 740 2 11 7 49 12 85 4 36 8 67 9 70 1 3
7 39 14 80 64 374 210 780 409 1140 54 98 224 365 241 380 3 3 31 39 63 80 31
41 66 86 78 100 12 14 42 50 68 80 96 112 338 346 437 421 17 13 32 26 35 30
9 11 235 176 267 196 17 10 82 49 145 87 213 131 479 253 718 331 63 21 124
42 135 46 19 8 240 62 300 73 17 4 41 9 55 11 14 3 41 8 60 11 19 3 42 7 50 9
8 2 38 7 65 10 28 3 66 7 85 10 19 2 71 7 115 11 44 3 81 7 83 9 5 5 532 -3
567 -8z m2490 -2500 c17 -3 62 -8 100 -12 87 -8 220 -30 345 -56 103 -22 270
-66 277 -73 12 -12 77 -283 99 -416 4 -25 8 -47 9 -50 1 -3 5 -36 9 -75 5 -38
10 -79 12 -90 22 -114 25 -629 5 -795 -10 -90 -37 -260 -56 -365 -38 -202
-149 -550 -236 -740 -12 -27 -23 -52 -24 -55 -2 -9 -116 -234 -133 -264 -10
-16 -21 -28 -25 -28 -5 0 -59 48 -120 105 -99 92 -133 123 -236 209 -115 97
-374 280 -514 364 -27 16 -63 38 -80 48 -55 33 -209 115 -277 147 -224 106
-256 120 -410 177 -339 125 -704 214 -1020 248 -30 3 -66 7 -80 10 -159 25
-715 26 -935 0 -16 -2 -59 -7 -95 -11 -36 -4 -69 -9 -73 -12 -22 -14 127 213
202 307 196 245 414 466 616 626 28 21 52 41 55 44 3 3 21 17 40 30 19 14 44
32 54 42 11 10 23 18 27 18 4 0 14 6 21 13 20 19 190 127 298 189 131 75 306
159 450 216 127 49 369 129 449 147 74 17 253 55 281 60 19 3 46 8 60 10 30 6
84 13 160 21 30 3 87 9 125 13 73 8 568 6 620 -2z m1665 -566 c3 -3 43 -31 90
-62 225 -148 518 -407 700 -618 30 -35 60 -69 65 -75 76 -82 299 -404 375
-541 76 -136 162 -317 215 -450 15 -38 31 -79 36 -90 4 -11 18 -49 29 -85 12
-36 25 -72 28 -80 3 -8 6 -19 7 -25 2 -5 12 -41 23 -80 21 -72 61 -231 68
-275 3 -14 11 -61 19 -105 39 -223 50 -354 50 -635 0 -276 -14 -445 -51 -640
-2 -14 -7 -41 -10 -60 -10 -65 -64 -280 -100 -398 -144 -475 -431 -982 -774
-1367 -77 -87 -285 -288 -378 -365 -93 -79 -289 -224 -381 -284 l-44 -28 7 63
c13 114 14 123 22 214 11 116 11 592 1 715 -9 108 -12 135 -31 285 -13 96 -60
336 -90 460 -112 458 -332 962 -592 1358 l-32 48 48 72 c160 245 335 598 445
902 38 104 111 339 120 386 2 8 10 44 19 80 20 81 53 240 62 299 3 25 8 54 10
65 6 33 14 88 19 135 3 25 7 61 10 80 27 201 27 757 0 960 -2 14 -6 52 -10 85
-4 33 -9 63 -12 67 -4 9 29 -2 37 -11z m-4155 -1934 c17 -3 57 -8 90 -11 33
-4 85 -11 115 -16 30 -5 75 -12 100 -15 134 -19 437 -99 604 -160 226 -81 460
-193 655 -311 62 -38 122 -74 132 -80 10 -6 27 -18 37 -27 10 -10 22 -17 25
-17 7 0 256 -186 267 -199 3 -3 39 -35 80 -71 41 -36 123 -113 183 -172 l107
-107 -107 -108 c-154 -154 -256 -243 -398 -349 -90 -67 -291 -204 -299 -204
-3 0 -31 -16 -61 -35 -79 -51 -330 -176 -460 -228 -193 -79 -504 -175 -655
-201 -19 -3 -46 -8 -60 -11 -72 -14 -140 -26 -185 -31 -27 -3 -63 -7 -80 -10
-184 -25 -711 -25 -852 0 -10 2 -45 7 -78 11 -33 3 -107 16 -165 27 -58 11
-114 22 -125 24 -55 10 -233 56 -244 63 -11 7 -72 223 -86 306 -3 17 -10 53
-15 80 -9 50 -13 76 -26 170 -3 28 -8 53 -9 56 -10 15 -20 250 -20 449 0 225
7 352 25 465 5 33 12 78 15 100 2 22 7 51 10 65 3 14 8 41 11 60 10 54 52 237
70 296 15 52 16 53 72 70 31 9 68 18 82 20 14 3 39 9 55 14 36 12 270 56 340
64 28 4 66 9 85 11 19 3 73 7 120 11 47 3 87 8 89 10 5 4 521 -4 556 -9z
m-2299 -609 c-4 -35 -9 -76 -11 -93 -27 -217 -27 -825 0 -966 2 -11 7 -48 10
-82 4 -34 9 -66 12 -71 3 -5 -14 3 -38 18 -24 15 -54 32 -66 38 -13 6 -23 15
-23 20 0 4 -4 8 -10 8 -8 0 -38 21 -174 123 -141 105 -456 401 -456 427 0 26
274 283 443 416 81 63 305 222 316 224 1 0 0 -28 -3 -62z m-1106 -1368 c31
-30 117 -106 165 -146 134 -112 144 -119 245 -193 30 -22 60 -44 65 -49 25
-21 250 -164 335 -214 122 -71 346 -184 479 -242 l104 -44 29 -69 c51 -121
167 -363 179 -373 3 -3 8 -13 12 -23 13 -34 148 -258 224 -370 444 -655 1064
-1195 1758 -1531 189 -92 602 -256 643 -256 6 0 53 -13 104 -29 125 -39 308
-81 468 -106 19 -3 60 -10 90 -15 30 -5 84 -12 120 -16 36 -3 67 -8 70 -9 31
-18 654 -27 825 -12 168 14 200 18 247 26 46 8 47 8 36 -13 -27 -51 -205 -303
-242 -342 -6 -7 -27 -31 -46 -55 -196 -242 -507 -521 -790 -709 -52 -34 -107
-71 -122 -81 -15 -11 -31 -19 -35 -19 -5 0 -25 -11 -46 -26 -42 -28 -370 -194
-384 -194 -5 0 -28 -9 -51 -20 -22 -11 -47 -20 -55 -20 -7 0 -17 -4 -22 -9
-20 -17 -207 -79 -400 -132 -84 -23 -350 -76 -420 -84 -27 -3 -66 -7 -85 -10
-201 -27 -690 -27 -865 0 -16 2 -66 9 -110 15 -44 7 -123 21 -175 31 -52 11
-104 22 -115 23 -47 9 -219 58 -333 95 -165 55 -318 118 -482 200 -121 61
-357 195 -370 210 -3 3 -39 28 -80 56 -67 44 -146 101 -160 115 -3 3 -36 30
-75 61 -134 107 -345 310 -450 433 -27 33 -55 64 -60 70 -32 33 -181 235 -240
326 -38 58 -76 116 -85 130 -56 84 -163 294 -231 454 -117 271 -220 630 -254
881 -2 17 -9 62 -14 100 -33 232 -36 718 -6 910 3 17 7 46 9 65 31 260 115
582 223 855 50 127 200 441 226 473 10 13 17 7 147 -118z m6379 -55 c114 -229
241 -566 276 -734 2 -9 12 -54 23 -101 11 -47 25 -119 32 -160 7 -41 14 -84
16 -95 3 -11 7 -42 10 -70 3 -27 7 -56 9 -62 26 -77 26 -711 1 -863 -3 -14 -7
-45 -10 -70 -4 -25 -9 -65 -12 -90 -8 -59 -67 -329 -89 -402 l-16 -57 -57 -16
c-31 -10 -64 -19 -72 -20 -174 -40 -229 -51 -290 -61 -19 -3 -42 -7 -50 -9 -8
-2 -41 -7 -73 -10 -32 -4 -67 -8 -78 -10 -64 -13 -225 -20 -439 -19 -218 0
-295 3 -420 19 -19 3 -53 7 -75 9 -55 7 -115 16 -145 22 -14 2 -38 7 -55 10
-84 14 -336 81 -454 120 -364 121 -680 282 -991 504 -117 83 -108 76 -205 157
-203 168 -403 373 -568 585 -93 120 -218 304 -211 311 2 2 24 1 47 -3 136 -25
309 -35 587 -35 287 0 410 8 635 41 61 9 119 17 130 18 11 2 34 6 50 9 17 4
41 9 55 11 282 49 777 210 1020 331 25 12 81 40 125 62 130 64 210 107 213
116 2 4 8 7 13 7 33 0 468 297 596 406 12 11 43 37 70 59 76 63 152 133 228
206 l70 69 17 -23 c9 -12 48 -85 87 -162z"/>
</g>
</svg>
